<?xml version="1.0" encoding="utf-8"?>
<!-- Generator: Adobe Illustrator 27.0.0, SVG Export Plug-In . SVG Version: 6.00 Build 0)  -->
<svg version="1.1" id="Layer_1" xmlns="http://www.w3.org/2000/svg" xmlns:xlink="http://www.w3.org/1999/xlink" x="0px" y="0px"
	 viewBox="0 0 36 36" style="enable-background:new 0 0 36 36;" xml:space="preserve">
<style type="text/css">
	.st0{fill:#231F20;}
</style>
<g>
	<path class="st0" d="M20.5,18.7h-8.2c0.1,0.9,0.4,1.7,0.9,2.2s1.2,0.8,2.1,0.8c0.7,0,1.2-0.2,1.6-0.5s0.9-0.9,1.4-1.7l2.2,1.2
		c-0.3,0.6-0.7,1.1-1.1,1.5s-0.8,0.8-1.2,1s-0.9,0.5-1.4,0.6S15.7,24,15.1,24c-1.7,0-3.1-0.5-4.1-1.6S9.5,19.8,9.5,18
		s0.5-3.3,1.5-4.4s2.3-1.7,4-1.7s3,0.5,4,1.6s1.5,2.5,1.5,4.4V18.7z M17.8,16.6c-0.4-1.4-1.3-2.1-2.7-2.1c-0.3,0-0.6,0-0.9,0.1
		s-0.5,0.2-0.8,0.4s-0.4,0.4-0.6,0.7s-0.3,0.6-0.4,0.9H17.8z"/>
	<path class="st0" d="M23,7.7c0-0.5,0.2-0.9,0.5-1.2S24.2,6,24.7,6s0.9,0.2,1.2,0.5c0.3,0.3,0.5,0.7,0.5,1.2s-0.2,0.9-0.5,1.2
		s-0.7,0.5-1.2,0.5s-0.9-0.2-1.2-0.5S23,8.1,23,7.7z M26,12.4V30h-2.6V12.4H26z"/>
</g>
</svg>
